<?xml version="1.0" encoding="UTF-8" standalone="no"?>
<!DOCTYPE svg PUBLIC "-//W3C//DTD SVG 1.1//EN" "http://www.w3.org/Graphics/SVG/1.1/DTD/svg11.dtd">
<!-- Created with Vectornator (http://vectornator.io/) -->
<svg height="100%" stroke-miterlimit="10" style="fill-rule:nonzero;clip-rule:evenodd;stroke-linecap:round;stroke-linejoin:round;" version="1.1" viewBox="0 0 175 85.6129" width="100%" xml:space="preserve" xmlns="http://www.w3.org/2000/svg" xmlns:vectornator="http://vectornator.io" xmlns:xlink="http://www.w3.org/1999/xlink">
<defs/>
<clipPath id="ArtboardFrame">
<rect height="85.6129" width="175" x="0" y="0"/>
</clipPath>
<g clip-path="url(#ArtboardFrame)" id="Layer-1" vectornator:layerName="Layer 1">
<path d="M57.2 57.1309C57.2 56.2309 57.4 54.7309 57.7 52.1309C58 49.5309 59.7 42.0309 66.3 37.8309C66 37.8309 65.5 37.6309 65.2 37.6309C64.3 37.6309 61.6 37.4309 57.8 38.8309C59.3 36.5309 64.9 32.8309 67 31.7309C67.2 31.5309 67.5 31.4309 67.6 31.4309C65.2 23.7309 60.1 17.4309 52.9 13.7309C48.4 11.3309 43.7 10.1309 37.4 9.93087L37.4 9.93087L24.8 9.93087C14.7 9.93087 10.1 9.73087 6.5 9.03087C3.5 8.23087 0.8 6.63087 0.8 6.63087L2.91767e-14 6.13087L0.2 7.03087C0.2 7.33087 1 14.1309 9.1 20.1309C10.6 21.3309 11.8 22.4309 11.8 26.3309L11.8 62.8309C11.8 66.7309 11 67.8309 9.2 68.8309C7.2 70.0309 3.2 72.3309 3.2 72.4309L1.8 73.2309L34.7 73.2309C43.9 73.2309 49.7 71.7309 55.9 67.5309C57.1 66.7309 58.2 65.8309 59.1 65.1309C58.5 60.4309 59.3 56.2309 59.9 53.8309C59.8 53.6309 58.1 55.1309 57.2 57.1309ZM36.2 57.8309L29.1 57.8309L29.1 25.4309L36.2 25.4309C45.5 25.4309 50.8 31.3309 50.8 41.6309C50.8 52.0309 45.5 57.8309 36.2 57.8309ZM127.4 65.9309C128 64.7309 128.3 63.2309 128.3 61.7309C128.3 60.2309 127.8 58.7309 127.2 57.5309L129 57.8309C130.2 58.0309 132.5 59.5309 132.5 61.7309C132.5 64.4309 129.8 65.6309 127.4 65.9309ZM162.2 67.4309C155.9 71.6309 150.2 73.1309 141 73.1309L140.7 73.1309C142.2 71.3309 143 68.9309 143 66.5309C143 63.0309 141.3 59.9309 138.6 57.8309L142.5 57.8309C151.8 57.8309 157.1 51.9309 157.1 41.6309C157.1 31.2309 151.8 25.4309 142.5 25.4309L135.4 25.4309L135.4 29.5309C134.3 29.3309 133.4 29.2309 132.4 29.2309C130.7 29.2309 128.8 29.5309 128.3 29.8309C130.3 28.1309 132.5 27.4309 134 27.1309C127.4 25.6309 121.2 29.4309 120.3 30.4309C121.1 28.7309 122.6 27.2309 123.6 26.2309C121.5 27.0309 119.5 28.0309 117.9 29.1309L117.9 26.4309C117.9 22.3309 116.8 21.3309 115.2 20.2309C107.1 14.3309 106.3 7.43087 106.3 7.13087L106.1 6.23087L106.9 6.73087C106.9 6.73087 109.6 8.53087 112.6 9.13087C116.1 9.93087 120.9 10.0309 130.9 10.0309L143.5 10.0309L143.5 10.0309C149.8 10.3309 154.5 11.4309 159 13.8309C169.2 19.1309 175.2 29.4309 175.2 41.4309C175.2 48.8309 172.8 56.0309 168.6 61.1309C167.2 63.5309 164.9 65.6309 162.2 67.4309ZM130.4 55.0309C128.1 55.0309 125.7 55.5309 125.7 55.5309C125.2 55.0309 122.2 52.8309 120.9 52.5309C123.3 55.1309 122.6 57.8309 122 58.7309C121.5 59.5309 120.6 59.9309 119.9 59.9309C119.3 59.9309 118.7 59.7309 118.1 59.3309L118.1 44.6309C118.7 43.8309 119.3 42.9309 120.1 42.2309C121.8 40.2309 124.5 39.0309 127.2 39.0309C128.9 39.0309 130.5 39.5309 131.6 40.4309L132.5 41.0309L133.3 40.2309C133.8 39.7309 134.8 39.3309 135.9 38.8309L135.9 56.1309C134 55.3309 132.3 55.0309 130.4 55.0309ZM127.4 34.6309C121.8 33.8309 113.3 37.6309 108.9 43.0309C109.8 39.4309 113.7 33.5309 118.5 30.8309C118.5 30.8309 116.1 33.8309 117.1 34.3309C118.6 35.1309 122.5 28.9309 127.6 28.7309C127.6 28.7309 123.8 30.5309 124.6 31.9309C125.2 32.8309 127.8 30.7309 132.1 30.7309C137.5 30.7309 142.3 34.0309 144.6 36.6309C140.8 35.5309 133.8 37.4309 131.7 39.2309C128.5 36.8309 122.4 37.1309 118.9 41.2309C114.5 46.2309 111.8 52.0309 111.1 53.8309C109.6 52.6309 108.2 51.5309 107.3 50.8309C106.5 50.2309 105.8 49.9309 105 49.6309C109.2 43.7309 117.6 35.0309 127.4 34.6309ZM68.8 17.7309C68.2 10.6309 71.5 6.73087 73 5.13087C76.3 1.63087 80.8-0.269125 87.6 0.0308747C98.1 0.630875 103.2 7.83087 103.2 15.5309C103.2 19.6309 101.1 25.0309 98.1 28.4309C97.9 28.2309 97.6 27.9309 97.5 27.8309C95.5 26.0309 92.7 23.7309 90.9 21.0309C94.5 15.7309 93 7.53087 86.5 7.53087C82.4 7.53087 79.1 11.7309 80.5 16.8309C79.9 19.1309 79.6 22.1309 80 24.3309C75.3 21.9309 73.8 18.7309 72.9 15.9309C71.7 18.3309 70.9 21.6309 71.8 24.8309C72 25.1309 69.3 22.7309 68.8 17.7309ZM71.5 30.5309C71 32.2309 64.9 34.0309 61.9 37.0309C66.4 36.1309 68.5 36.8309 69.3 38.7309C69.8 40.1309 69.1 41.9309 68.8 44.0309C70.3 42.3309 75.4 38.9309 79.2 38.1309C78.3 37.8309 76 37.3309 75.1 37.3309C77.8 34.1309 83.8 33.1309 87.1 33.8309C85 33.6309 80.8 34.9309 79.1 36.2309C80.6 36.5309 82 36.8309 83.2 37.3309C81.2 38.1309 78.7 40.5309 77.8 43.0309C80.4 41.2309 85.6 41.6309 86.5 45.4309C87.1 48.0309 85.3 50.2309 84.4 50.7309C85.2 50.9309 87 50.7309 87.7 50.2309C87.4 51.3309 85.9 53.1309 84.8 53.4309C87.5 53.4309 91.4 51.6309 92.5 49.0309C92.5 49.0309 90.8 49.6309 90.1 48.8309C89.3 48.0309 90.4 44.7309 90.4 44.7309C90.4 44.7309 89.3 46.1309 88.4 45.3309C87.5 44.4309 88.7 41.4309 89.2 40.8309C88.3 40.5309 85.9 40.2309 84.8 40.3309C87.8 39.2309 94.6 38.6309 95.3 40.0309C95.9 41.1309 94.4 43.2309 94.4 43.2309C95.6 43.0309 99.1 43.2309 100.3 44.6309C101.5 46.1309 100.8 48.1309 100.8 48.1309C103.5 46.7309 105.9 42.5309 105.3 38.3309C105 39.2309 103.8 40.6309 102.6 40.9309C102.8 39.5309 101.7 38.8309 100.8 38.5309C101.3 35.9309 100.2 32.6309 96.4 29.0309C93.2 25.8309 87.2 21.6309 87.5 16.1309C86.6 17.3309 85.8 20.8309 86.7 22.7309C89.3 25.7309 94.8 29.0309 96.2 34.1309C93.8 28.1309 82.1 23.4309 82.5 15.2309C81 16.7309 80.1 22.6309 81.3 25.6309C83.6 27.0309 85.5 29.2309 85.8 31.3309C83.7 26.5309 75.1 25.6309 72.7 19.9309C72.1 22.0309 72.4 24.6309 73.6 26.2309C73.6 26.2309 71.5 25.4309 67 25.6309C68.6 26.1309 71.8 28.8309 71.5 30.5309ZM95.8 37.4309C93.2 37.4309 92.5 35.4309 91.9 33.3309C94.9 34.6309 95.8 37.4309 95.8 37.4309ZM128.6 76.6309C130.4 78.3309 134.8 79.5309 137 78.4309C135.6 80.8309 129.3 84.1309 123.5 82.6309C117.9 81.1309 115.4 75.8309 115.4 72.4309C112.7 75.1309 113.4 79.3309 115.4 81.1309C113.3 80.5309 110 78.2309 109.4 74.2309C108.9 70.7309 110.9 66.7309 107.3 63.5309C105.2 61.5309 101.7 58.8309 99.6 57.2309C95.1 53.7309 96.7 51.0309 95.8 49.2309C95 47.7309 93.1 46.9309 92 45.6309C90.8 44.2309 90.9 42.3309 91.5 41.2309C91.3 42.7309 92.4 43.9309 93.9 44.5309C95.6 45.1309 96.9 44.7309 98.4 45.4309C100.1 46.5309 99.3 49.0309 100.5 50.1309C101.6 50.9309 104.4 49.8309 106.7 51.8309C109.1 53.8309 114.4 58.1309 116.6 59.9309C120.7 63.2309 124.9 59.4309 123.5 55.5309C127.7 57.9309 128.2 64.8309 124.7 67.2309C128 68.0309 133.9 66.4309 133.9 61.8309C133.9 58.9309 131.2 56.8309 129.4 56.5309C136.2 55.9309 142 60.6309 142 66.6309C141.8 72.7309 135.6 77.5309 128.6 76.6309ZM106.2 64.3309C106.4 64.5309 106.5 64.6309 106.7 64.8309C103.1 72.2309 96.3 81.6309 83.4 81.6309C78.7 81.6309 74.5 79.9309 71.5 77.7309C70.4 76.9309 69.5 76.0309 68.8 75.0309L68.8 75.0309L68.8 75.0309C68.3 74.4309 67.9 73.9309 67.4 73.3309C66.8 72.5309 66.3 72.5309 66 73.0309C65.4 73.9309 66.5 76.8309 66.5 76.8309C56.3 67.2309 61.5 53.1309 61.7 52.5309C62.3 50.7309 61.7 50.4309 61.1 50.7309C60.2 51.0309 59.1 52.5309 59.1 52.5309C59.9 43.9309 67.8 38.7309 67.8 38.7309L68 38.9309C68.9 40.3309 67.5 41.9309 67.4 47.3309C68.9 45.2309 74.8 41.1309 78.1 39.9309C77 41.3309 76.1 43.2309 76.1 46.1309C76.1 46.1309 78.5 43.4309 81.5 43.4309C82.3 43.4309 83 43.6309 83.6 43.9309C72.2 55.0309 77 68.8309 86.6 68.8309C92 68.8309 97.4 62.8309 99.7 58.7309C101.4 60.2309 104.2 62.6309 106.2 64.3309Z" fill="#FFFFFF" fill-rule="nonzero" opacity="1" stroke="none" vectornator:layerName="path"/>
</g>
</svg>
